<?xml version="1.0" standalone="no"?>
<!DOCTYPE svg PUBLIC "-//W3C//DTD SVG 20010904//EN"
 "http://www.w3.org/TR/2001/REC-SVG-20010904/DTD/svg10.dtd">
<svg version="1.0" xmlns="http://www.w3.org/2000/svg"
 width="1920.000000pt" height="1920.000000pt" viewBox="0 0 1920.000000 1920.000000"
 preserveAspectRatio="xMidYMid meet">
<metadata>
Created by potrace 1.14, written by Peter Selinger 2001-2017
</metadata>
<g transform="translate(0.000000,1920.000000) scale(0.100000,-0.100000)"
fill="#000000" stroke="none">
<path d="M9238 19195 c-2 -1 -68 -6 -148 -10 -164 -7 -221 -11 -300 -20 -30
-3 -84 -8 -120 -11 -100 -8 -311 -33 -415 -49 -16 -3 -48 -7 -70 -10 -22 -3
-51 -7 -65 -10 -14 -3 -43 -8 -65 -10 -22 -3 -62 -10 -90 -15 -27 -5 -64 -12
-82 -15 -56 -9 -287 -56 -323 -65 -19 -5 -46 -11 -60 -14 -14 -2 -65 -14 -115
-26 -49 -12 -101 -24 -115 -27 -43 -9 -311 -83 -415 -114 -307 -91 -774 -259
-972 -350 -24 -10 -45 -19 -47 -19 -2 0 -21 -8 -42 -17 -22 -9 -42 -16 -46
-15 -5 1 -8 -3 -8 -8 0 -6 -6 -10 -14 -10 -34 0 -583 -273 -835 -415 -249
-141 -376 -219 -631 -390 -189 -126 -273 -185 -450 -317 -85 -64 -355 -279
-403 -323 -19 -16 -54 -46 -78 -66 -24 -21 -58 -50 -75 -65 -17 -16 -68 -63
-114 -104 -194 -173 -492 -472 -640 -639 -30 -34 -68 -77 -85 -95 -16 -17 -48
-53 -70 -80 -22 -26 -49 -58 -60 -70 -11 -12 -38 -44 -60 -70 -22 -27 -45 -54
-50 -60 -6 -6 -24 -29 -40 -51 -17 -22 -32 -42 -35 -45 -3 -3 -24 -27 -45 -55
-22 -27 -43 -51 -47 -53 -5 -2 -8 -10 -8 -17 0 -7 -4 -15 -8 -17 -10 -4 -142
-178 -205 -270 -25 -37 -51 -73 -57 -80 -49 -57 -440 -676 -440 -698 0 -5 -6
-15 -13 -22 -7 -7 -37 -58 -67 -113 -76 -142 -74 -139 -80 -145 -19 -17 -360
-733 -360 -755 0 -2 -11 -28 -24 -57 -13 -29 -33 -78 -45 -108 -12 -30 -26
-64 -31 -75 -35 -82 -157 -423 -213 -600 -77 -239 -206 -719 -231 -855 -2 -14
-7 -32 -10 -40 -3 -8 -7 -28 -10 -45 -2 -16 -16 -91 -31 -165 -28 -141 -51
-273 -61 -350 -3 -25 -8 -54 -10 -65 -2 -11 -7 -40 -10 -65 -3 -25 -7 -56 -10
-70 -2 -14 -7 -49 -10 -79 -3 -30 -7 -62 -9 -71 -2 -9 -6 -56 -10 -106 -4 -49
-9 -91 -10 -94 -2 -3 -6 -45 -10 -95 -3 -49 -8 -110 -10 -135 -27 -295 -27
-1146 0 -1375 2 -22 7 -76 10 -120 11 -156 33 -347 65 -580 6 -44 18 -118 26
-165 8 -47 17 -101 20 -120 12 -75 66 -341 95 -465 17 -71 32 -139 35 -150 3
-16 43 -167 89 -338 3 -9 7 -25 9 -35 2 -9 9 -28 14 -42 5 -14 10 -29 10 -33
1 -20 111 -353 179 -542 139 -383 271 -688 469 -1080 56 -110 127 -244 158
-299 31 -54 56 -100 56 -103 0 -2 16 -29 35 -59 19 -30 35 -56 35 -59 0 -16
371 -589 450 -695 14 -19 80 -107 145 -195 66 -88 122 -162 125 -165 3 -3 41
-50 85 -105 44 -55 84 -105 90 -111 5 -6 39 -46 75 -89 36 -43 81 -94 100
-115 19 -21 64 -70 100 -110 36 -40 121 -132 190 -203 111 -115 168 -171 324
-322 57 -55 168 -155 316 -285 19 -17 61 -52 92 -77 32 -25 58 -50 58 -54 0
-5 5 -9 11 -9 6 0 16 -6 23 -13 43 -41 255 -207 265 -207 5 0 11 -4 13 -8 3
-8 140 -112 216 -164 18 -13 39 -28 45 -33 33 -29 405 -275 416 -275 5 0 11
-4 13 -8 3 -7 373 -232 382 -232 2 0 43 -23 92 -51 229 -132 647 -334 979
-471 211 -88 535 -206 760 -278 88 -27 162 -50 165 -49 3 0 19 -5 35 -11 17
-7 38 -14 48 -16 9 -2 25 -6 35 -9 170 -46 321 -86 337 -89 11 -3 79 -18 150
-35 132 -30 411 -87 475 -97 19 -3 60 -9 90 -14 30 -5 69 -11 85 -14 62 -9
121 -18 139 -22 11 -2 42 -6 70 -9 28 -3 65 -8 81 -10 61 -8 267 -30 375 -39
433 -38 1097 -43 1510 -11 88 6 202 16 240 20 182 20 289 32 340 40 14 2 75
11 135 19 119 17 307 48 420 71 39 8 81 16 95 19 14 2 68 14 120 26 52 12 104
23 115 25 224 47 734 194 1010 292 112 40 329 120 360 133 11 5 45 19 75 31
30 12 79 32 108 45 29 13 55 24 57 24 22 0 738 341 755 360 6 6 6 6 145 80 55
29 102 56 105 59 3 3 23 16 45 28 50 28 133 75 154 88 9 6 54 34 101 63 47 29
94 59 104 65 11 7 25 16 30 20 11 8 185 123 215 142 9 6 18 12 21 15 3 3 25
19 50 35 24 17 74 51 110 78 36 26 76 55 89 65 14 9 36 26 50 38 14 11 33 25
42 30 9 5 32 21 50 36 19 16 95 76 169 136 129 102 168 134 194 157 6 6 38 33
71 60 32 28 78 69 102 92 24 23 43 39 43 36 0 -3 20 16 45 41 25 25 48 46 50
46 3 0 87 80 230 220 84 81 303 310 375 390 17 19 48 53 68 75 20 23 55 62 77
89 22 26 49 58 60 70 11 12 38 44 60 70 22 27 45 54 50 60 6 6 24 29 40 51 17
22 32 42 35 45 3 3 24 28 45 55 22 28 43 52 48 53 4 2 7 10 7 17 0 7 4 15 8
17 10 4 142 178 205 270 25 37 51 73 57 80 41 47 440 675 440 693 0 2 19 36
43 77 24 40 47 80 51 88 3 8 36 69 71 135 109 202 305 607 305 631 0 8 4 14
10 14 5 0 9 3 8 7 -1 5 6 25 15 47 9 21 17 40 17 42 0 2 9 23 19 47 91 198
259 665 350 972 31 104 105 372 114 415 3 14 15 66 27 115 12 50 24 101 26
115 3 14 9 41 14 60 8 32 42 195 54 265 34 185 72 423 81 500 3 28 7 59 9 70
2 11 7 52 11 90 3 39 8 84 11 100 2 17 6 55 9 85 4 51 9 110 20 235 27 296 27
1116 0 1383 -2 26 -7 81 -10 122 -13 164 -34 348 -65 575 -6 44 -18 118 -26
165 -8 47 -17 101 -20 120 -12 74 -76 390 -100 490 -14 58 -27 113 -29 123
-41 200 -293 1013 -327 1055 -6 6 -8 12 -5 12 5 0 -24 79 -52 145 -5 11 -21
52 -36 90 -15 39 -34 86 -42 105 -140 324 -144 333 -264 575 -94 190 -123 244
-207 395 -20 36 -44 79 -52 95 -40 73 -55 100 -60 105 -3 3 -43 68 -89 145
-47 77 -88 141 -93 143 -4 2 -8 8 -8 13 0 11 -194 305 -221 335 -10 11 -19 24
-19 28 0 7 -285 394 -299 406 -3 3 -42 50 -86 105 -44 55 -84 105 -90 111 -5
6 -39 46 -75 89 -36 43 -81 94 -100 115 -19 21 -64 70 -100 110 -83 93 -292
310 -394 409 -205 198 -317 301 -327 301 -4 0 -12 6 -16 14 -4 8 -28 30 -53
51 -25 20 -74 62 -108 93 -35 31 -74 63 -85 71 -12 8 -24 18 -27 21 -19 22
-392 309 -495 380 -20 14 -42 30 -48 35 -33 29 -405 275 -416 275 -5 0 -11 4
-13 8 -3 8 -372 232 -383 232 -3 0 -22 10 -43 23 -164 102 -593 314 -947 466
-11 5 -36 16 -55 24 -19 8 -66 27 -105 42 -38 15 -79 31 -90 36 -66 28 -145
57 -145 52 0 -3 -6 -1 -12 5 -34 27 -566 198 -848 272 -85 22 -171 45 -190 50
-33 9 -140 35 -185 46 -11 2 -36 7 -55 10 -19 3 -53 10 -75 16 -22 5 -51 12
-65 15 -14 2 -70 13 -125 24 -55 11 -116 22 -135 25 -19 3 -60 9 -90 14 -30 5
-68 11 -85 14 -62 9 -121 18 -139 22 -11 2 -42 6 -70 9 -28 3 -64 8 -81 10
-42 6 -209 24 -280 30 -33 3 -76 8 -95 10 -19 2 -84 7 -145 11 -60 4 -128 8
-150 11 -48 4 -882 13 -887 8z"/>
</g>
</svg>
